<svg width="460" height="37" viewBox="0 0 460 37" fill="none" xmlns="http://www.w3.org/2000/svg">
<rect x="31" y="1" width="9" height="35" fill="#B4B9BC"/>
<rect x="17" y="1" width="12" height="35" fill="#ACAFB0"/>
<rect y="1" width="15" height="35" fill="#838687"/>
<path d="M50.2273 36V1.09091H62.4318C64.8636 1.09091 66.8693 1.51136 68.4489 2.35227C70.0284 3.18182 71.2045 4.30114 71.9773 5.71023C72.75 7.10795 73.1364 8.65909 73.1364 10.3636C73.1364 11.8636 72.8693 13.1023 72.3352 14.0795C71.8125 15.0568 71.1193 15.8295 70.2557 16.3977C69.4034 16.9659 68.4773 17.3864 67.4773 17.6591V18C68.5455 18.0682 69.6193 18.4432 70.6989 19.125C71.7784 19.8068 72.6818 20.7841 73.4091 22.0568C74.1364 23.3295 74.5 24.8864 74.5 26.7273C74.5 28.4773 74.1023 30.0511 73.3068 31.4489C72.5114 32.8466 71.2557 33.9545 69.5398 34.7727C67.8239 35.5909 65.5909 36 62.8409 36H50.2273ZM54.4545 32.25H62.8409C65.6023 32.25 67.5625 31.7159 68.7216 30.6477C69.892 29.5682 70.4773 28.2614 70.4773 26.7273C70.4773 25.5455 70.1761 24.4545 69.5739 23.4545C68.9716 22.4432 68.1136 21.6364 67 21.0341C65.8864 20.4205 64.5682 20.1136 63.0455 20.1136H54.4545V32.25ZM54.4545 16.4318H62.2955C63.5682 16.4318 64.7159 16.1818 65.7386 15.6818C66.7727 15.1818 67.5909 14.4773 68.1932 13.5682C68.8068 12.6591 69.1136 11.5909 69.1136 10.3636C69.1136 8.82955 68.5795 7.52841 67.5114 6.46023C66.4432 5.38068 64.75 4.84091 62.4318 4.84091H54.4545V16.4318ZM81.446 36V1.09091H85.6733V32.25H101.901V36H81.446ZM108.446 36V1.09091H129.514V4.84091H112.673V16.6364H128.423V20.3864H112.673V32.25H129.787V36H108.446ZM164.815 1.09091V36H160.724L141.702 8.59091H141.361V36H137.134V1.09091H141.224L160.315 28.5682H160.656V1.09091H164.815ZM184.047 36H173.274V1.09091H184.524C187.911 1.09091 190.808 1.78977 193.217 3.1875C195.626 4.57386 197.473 6.56818 198.757 9.17045C200.041 11.7614 200.683 14.8636 200.683 18.4773C200.683 22.1136 200.036 25.2443 198.74 27.8693C197.445 30.483 195.558 32.4943 193.081 33.9034C190.604 35.3011 187.592 36 184.047 36ZM177.501 32.25H183.774C186.661 32.25 189.053 31.6932 190.95 30.5795C192.848 29.4659 194.263 27.8807 195.195 25.8239C196.126 23.767 196.592 21.3182 196.592 18.4773C196.592 15.6591 196.132 13.233 195.212 11.1989C194.291 9.15341 192.916 7.58523 191.087 6.49432C189.257 5.39204 186.979 4.84091 184.251 4.84091H177.501V32.25ZM207.774 36V1.09091H228.842V4.84091H212.001V16.6364H227.751V20.3864H212.001V32.25H229.115V36H207.774ZM247.234 36H236.462V1.09091H247.712C251.098 1.09091 253.996 1.78977 256.405 3.1875C258.814 4.57386 260.661 6.56818 261.945 9.17045C263.229 11.7614 263.871 14.8636 263.871 18.4773C263.871 22.1136 263.223 25.2443 261.928 27.8693C260.632 30.483 258.746 32.4943 256.268 33.9034C253.791 35.3011 250.78 36 247.234 36ZM240.689 32.25H246.962C249.848 32.25 252.24 31.6932 254.138 30.5795C256.036 29.4659 257.45 27.8807 258.382 25.8239C259.314 23.767 259.78 21.3182 259.78 18.4773C259.78 15.6591 259.32 13.233 258.399 11.1989C257.479 9.15341 256.104 7.58523 254.274 6.49432C252.445 5.39204 250.166 4.84091 247.439 4.84091H240.689V32.25ZM290.053 9.81818C289.848 8.09091 289.018 6.75 287.564 5.79545C286.109 4.84091 284.325 4.36364 282.212 4.36364C280.666 4.36364 279.314 4.61364 278.155 5.11364C277.007 5.61364 276.109 6.30114 275.462 7.17614C274.825 8.05114 274.507 9.04545 274.507 10.1591C274.507 11.0909 274.729 11.892 275.172 12.5625C275.626 13.2216 276.206 13.7727 276.911 14.2159C277.615 14.6477 278.354 15.0057 279.126 15.2898C279.899 15.5625 280.609 15.7841 281.257 15.9545L284.803 16.9091C285.712 17.1477 286.723 17.4773 287.837 17.8977C288.962 18.3182 290.036 18.892 291.058 19.6193C292.092 20.3352 292.945 21.2557 293.615 22.3807C294.286 23.5057 294.621 24.8864 294.621 26.5227C294.621 28.4091 294.126 30.1136 293.138 31.6364C292.161 33.1591 290.729 34.3693 288.842 35.267C286.967 36.1648 284.689 36.6136 282.007 36.6136C279.507 36.6136 277.342 36.2102 275.513 35.4034C273.695 34.5966 272.263 33.4716 271.217 32.0284C270.183 30.5852 269.598 28.9091 269.462 27H273.825C273.939 28.3182 274.382 29.4091 275.155 30.2727C275.939 31.125 276.928 31.7614 278.121 32.1818C279.325 32.5909 280.621 32.7955 282.007 32.7955C283.621 32.7955 285.07 32.5341 286.354 32.0114C287.638 31.4773 288.655 30.7386 289.405 29.7955C290.155 28.8409 290.53 27.7273 290.53 26.4545C290.53 25.2955 290.206 24.3523 289.558 23.625C288.911 22.8977 288.058 22.3068 287.001 21.8523C285.945 21.3977 284.803 21 283.575 20.6591L279.28 19.4318C276.553 18.6477 274.393 17.5284 272.803 16.0739C271.212 14.6193 270.416 12.7159 270.416 10.3636C270.416 8.40909 270.945 6.70454 272.001 5.25C273.07 3.78409 274.501 2.64773 276.297 1.84091C278.104 1.02273 280.121 0.613635 282.348 0.613635C284.598 0.613635 286.598 1.01704 288.348 1.82386C290.098 2.61932 291.484 3.71023 292.507 5.09659C293.541 6.48295 294.087 8.05682 294.143 9.81818H290.053ZM301.571 36V1.09091H305.798V16.6364H324.412V1.09091H328.639V36H324.412V20.3864H305.798V36H301.571ZM338.534 36H334.102L346.92 1.09091H351.284L364.102 36H359.67L349.239 6.61364H348.966L338.534 36ZM340.17 22.3636H358.034V26.1136H340.17V22.3636ZM380.312 36H369.54V1.09091H380.79C384.176 1.09091 387.074 1.78977 389.483 3.1875C391.892 4.57386 393.739 6.56818 395.023 9.17045C396.307 11.7614 396.949 14.8636 396.949 18.4773C396.949 22.1136 396.301 25.2443 395.006 27.8693C393.71 30.483 391.824 32.4943 389.347 33.9034C386.869 35.3011 383.858 36 380.312 36ZM373.767 32.25H380.04C382.926 32.25 385.318 31.6932 387.216 30.5795C389.114 29.4659 390.528 27.8807 391.46 25.8239C392.392 23.767 392.858 21.3182 392.858 18.4773C392.858 15.6591 392.398 13.233 391.477 11.1989C390.557 9.15341 389.182 7.58523 387.352 6.49432C385.523 5.39204 383.244 4.84091 380.517 4.84091H373.767V32.25ZM404.04 36V1.09091H425.108V4.84091H408.267V16.6364H424.017V20.3864H408.267V32.25H425.381V36H404.04ZM451.818 9.81818C451.614 8.09091 450.784 6.75 449.33 5.79545C447.875 4.84091 446.091 4.36364 443.977 4.36364C442.432 4.36364 441.08 4.61364 439.92 5.11364C438.773 5.61364 437.875 6.30114 437.227 7.17614C436.591 8.05114 436.273 9.04545 436.273 10.1591C436.273 11.0909 436.494 11.892 436.938 12.5625C437.392 13.2216 437.972 13.7727 438.676 14.2159C439.381 14.6477 440.119 15.0057 440.892 15.2898C441.665 15.5625 442.375 15.7841 443.023 15.9545L446.568 16.9091C447.477 17.1477 448.489 17.4773 449.602 17.8977C450.727 18.3182 451.801 18.892 452.824 19.6193C453.858 20.3352 454.71 21.2557 455.381 22.3807C456.051 23.5057 456.386 24.8864 456.386 26.5227C456.386 28.4091 455.892 30.1136 454.903 31.6364C453.926 33.1591 452.494 34.3693 450.608 35.267C448.733 36.1648 446.455 36.6136 443.773 36.6136C441.273 36.6136 439.108 36.2102 437.278 35.4034C435.46 34.5966 434.028 33.4716 432.983 32.0284C431.949 30.5852 431.364 28.9091 431.227 27H435.591C435.705 28.3182 436.148 29.4091 436.92 30.2727C437.705 31.125 438.693 31.7614 439.886 32.1818C441.091 32.5909 442.386 32.7955 443.773 32.7955C445.386 32.7955 446.835 32.5341 448.119 32.0114C449.403 31.4773 450.42 30.7386 451.17 29.7955C451.92 28.8409 452.295 27.7273 452.295 26.4545C452.295 25.2955 451.972 24.3523 451.324 23.625C450.676 22.8977 449.824 22.3068 448.767 21.8523C447.71 21.3977 446.568 21 445.341 20.6591L441.045 19.4318C438.318 18.6477 436.159 17.5284 434.568 16.0739C432.977 14.6193 432.182 12.7159 432.182 10.3636C432.182 8.40909 432.71 6.70454 433.767 5.25C434.835 3.78409 436.267 2.64773 438.062 1.84091C439.869 1.02273 441.886 0.613635 444.114 0.613635C446.364 0.613635 448.364 1.01704 450.114 1.82386C451.864 2.61932 453.25 3.71023 454.273 5.09659C455.307 6.48295 455.852 8.05682 455.909 9.81818H451.818Z" fill="#454545"/>
</svg>
